<?xml version="1.0" encoding="UTF-8" standalone="no"?>
<!-- Created with Inkscape (http://www.inkscape.org/) -->

<svg
   width="256.0px"
   height="256.0px"
   viewBox="0 0 256.0 256.0"
   version="1.1"
   id="SVGRoot"
   sodipodi:docname="icon.svg"
   xml:space="preserve"
   inkscape:version="1.2.2 (732a01da63, 2022-12-09)"
   inkscape:export-filename="tegning.png"
   inkscape:export-xdpi="96.099998"
   inkscape:export-ydpi="96.099998"
   xmlns:inkscape="http://www.inkscape.org/namespaces/inkscape"
   xmlns:sodipodi="http://sodipodi.sourceforge.net/DTD/sodipodi-0.dtd"
   xmlns="http://www.w3.org/2000/svg"
   xmlns:svg="http://www.w3.org/2000/svg"><sodipodi:namedview
     id="namedview691"
     pagecolor="#ffffff"
     bordercolor="#000000"
     borderopacity="0.25"
     inkscape:showpageshadow="2"
     inkscape:pageopacity="0.0"
     inkscape:pagecheckerboard="0"
     inkscape:deskcolor="#d1d1d1"
     inkscape:document-units="px"
     showgrid="true"
     inkscape:zoom="4"
     inkscape:cx="214.75"
     inkscape:cy="121.125"
     inkscape:window-width="2560"
     inkscape:window-height="1351"
     inkscape:window-x="-9"
     inkscape:window-y="-9"
     inkscape:window-maximized="1"
     inkscape:current-layer="layer3"
     showguides="false"><inkscape:grid
       type="xygrid"
       id="grid814" /></sodipodi:namedview><defs
     id="defs686" /><g
     inkscape:label="Background"
     inkscape:groupmode="layer"
     id="layer1"
     style="display:inline"><rect
       style="display:inline;fill:#000000;fill-opacity:1;stroke:none;stroke-width:45.7194;stroke-linecap:round;stroke-linejoin:round"
       id="rect1184"
       width="198"
       height="255"
       x="-229"
       y="-255"
       rx="24.550892"
       ry="27.016462"
       transform="scale(-1)" /><rect
       style="display:inline;fill:#262626;fill-opacity:1;stroke:none;stroke-width:22.8622;stroke-linecap:round;stroke-linejoin:round"
       id="rect2222"
       width="200"
       height="63.126263"
       x="-230"
       y="-126.03195"
       rx="0"
       ry="0"
       transform="scale(-1)" /><rect
       style="display:inline;fill:#333333;fill-opacity:1;stroke:none;stroke-width:22.8393;stroke-linecap:round;stroke-linejoin:round"
       id="rect2308"
       width="200"
       height="63"
       x="-230"
       y="-188.81142"
       rx="0"
       ry="0"
       transform="scale(-1)" /><path
       id="path6283"
       style="display:inline;fill:#1a1a1a;stroke-width:22.8392;stroke-linecap:round;stroke-linejoin:round;fill-opacity:1"
       d="M 205.20117,256 H 54.801207 C 41.062834,256 30.0027,244.75721 30.0027,230.79198 L 30,193 H 229.997 L 230,230.79198 C 230.00067,244.75721 218.93955,256 205.20117,256 Z"
       sodipodi:nodetypes="sssccss" /><path
       id="rect2319"
       style="display:inline;fill:#3f3f3f;stroke-width:22.8392;stroke-linecap:round;stroke-linejoin:round"
       d="M 205.20117,251.71749 H 54.801207 C 41.062834,251.71749 30.0027,240.4747 30.0027,226.50947 L 30,188.71749 H 229.997 L 230,226.50947 c 6.7e-4,13.96523 -11.06045,25.20802 -24.79883,25.20802 z"
       sodipodi:nodetypes="sssccss" /><path
       id="path2331"
       style="display:inline;fill:#1a1a1a;fill-opacity:1;stroke-width:22.8392;stroke-linecap:round;stroke-linejoin:round"
       d="M 205.20117,0 H 54.801207 C 41.062834,0 30.0027,11.242776 30.0027,25.208018 L 30,63 H 229.997 L 230,25.208018 C 230.00067,11.242776 218.93955,0 205.20117,0 Z"
       sodipodi:nodetypes="sssccss" /></g><g
     inkscape:groupmode="layer"
     id="layer3"
     inkscape:label="Eye"><path
       style="display:inline;fill:none;fill-opacity:0.170667;stroke:#d71500;stroke-width:12;stroke-linecap:round;stroke-linejoin:round;stroke-dasharray:none;stroke-opacity:0.842667;paint-order:markers fill stroke"
       d="m 100.47816,38.13651 c 0,0 -11.336006,3.20256 -14.093094,9.89737 -2.757083,6.694802 -0.59094,12.916719 -0.194422,18.924603 0.396493,6.007858 -5.804804,11.941732 -7.944198,12.036136"
       id="path6612-8" /><path
       style="fill:none;fill-opacity:0.170667;stroke:#d71500;stroke-width:12;stroke-linecap:round;stroke-linejoin:round;stroke-dasharray:none;stroke-opacity:1;paint-order:markers fill stroke"
       d="m 93.053435,153.07816 c 0,0 -11.864603,5.50965 -15.317055,12.76521 -3.452452,7.25555 -1.840049,13.03619 -2.011397,18.96299 -0.171347,5.92679 -7.062482,13.12248 -9.252774,13.65233"
       id="path6612" /><path
       style="fill:none;fill-opacity:0.170667;stroke:#bb1706;stroke-width:15;stroke-linecap:round;stroke-linejoin:round;stroke-dasharray:none;stroke-opacity:1;paint-order:markers fill stroke"
       d="m 220.9077,50.800055 c 0,0 -6.10595,11.569018 -4.46011,19.433738 1.64583,7.864697 6.42932,11.488755 9.88178,16.309248 3.45243,4.820437 2.32543,14.719719 0.90317,16.467659"
       id="path6612-20" /><path
       style="fill:none;fill-opacity:0.170667;stroke:#d71500;stroke-width:10;stroke-linecap:round;stroke-linejoin:round;stroke-dasharray:none;stroke-opacity:1;paint-order:markers fill stroke"
       d="m 189.44193,180.14788 c 0,0 -12.66816,-3.26229 -17.38139,-9.76983 -4.71324,-6.50753 -4.17792,-12.48492 -5.42325,-18.28193 -1.24532,-5.79702 -9.32912,-11.62092 -11.57922,-11.744"
       id="path6612-2" /><path
       id="path6350"
       style="fill:#000000;fill-opacity:0.170667;stroke-width:29.0017;stroke-linecap:square;paint-order:markers fill stroke"
       d="m 49.176777,125.72108 c 36.77963,28.16419 62.851913,46.1802 87.258233,46.23452 30.85977,0.0687 54.92152,-18.07183 92.16835,-46.24642 l -7.97336,0.0751 z"
       sodipodi:nodetypes="csccc" /><path
       id="rect3350"
       style="fill:#ffca1c;fill-opacity:1;stroke-width:27.3781;stroke-linecap:square;paint-order:markers fill stroke"
       d="m 49,125.81704 c 69.81616,-52.889536 92.21438,-52.909095 162.9174,-1e-5 -70.47647,52.09941 -93.07787,51.89322 -162.9174,1e-5 z"
       sodipodi:nodetypes="ccc" /><path
       id="path6335"
       style="fill:#ffb51c;fill-opacity:1;stroke-width:27.3781;stroke-linecap:square;paint-order:markers fill stroke"
       d="m 49,125.81704 c 69.81616,-52.889536 92.21438,-52.909095 162.9174,-1e-5 -0.10147,0.22441 -162.9174,1e-5 -162.9174,1e-5 z"
       sodipodi:nodetypes="ccc" /><path
       id="path5704"
       style="fill:#333333;fill-opacity:1;stroke-width:11.2993;stroke-linecap:square;paint-order:markers fill stroke"
       d="m 129.8703,147.75714 c -3.26513,-23.80552 -14.87706,-59.998012 -14.87706,-59.998012 10.02402,-3.020941 19.9813,-3.03409 30.01539,-0.100185 -5.11539,20.527617 -10.81,40.476747 -15.13833,60.098197 z"
       sodipodi:nodetypes="cccc" /><rect
       style="fill:#bb1706;fill-opacity:1;stroke:none;stroke-width:12;stroke-linecap:round;stroke-linejoin:round;stroke-opacity:1;paint-order:markers fill stroke"
       id="rect356"
       width="18"
       height="19"
       x="-57.177826"
       y="195.50806"
       transform="rotate(-30.127085)"
       ry="1.7238938"
       rx="1.835286" /><rect
       style="fill:#d71500;fill-opacity:1;stroke:none;stroke-width:12;stroke-linecap:round;stroke-linejoin:round;stroke-opacity:1;paint-order:markers fill stroke"
       id="rect356-0"
       width="19"
       height="20"
       x="26.669378"
       y="92.614014"
       transform="rotate(-21.280982)"
       ry="1.7238938"
       rx="1.835286" /><rect
       style="fill:#d71500;fill-opacity:1;stroke:none;stroke-width:12;stroke-linecap:round;stroke-linejoin:round;stroke-opacity:1;paint-order:markers fill stroke"
       id="rect356-2"
       width="20"
       height="21"
       x="-81.649162"
       y="230.02815"
       transform="rotate(-81.119136)"
       ry="1.7238938"
       rx="1.835286" /><rect
       style="fill:#bb1706;fill-opacity:1;stroke:none;stroke-width:12;stroke-linecap:round;stroke-linejoin:round;stroke-opacity:1;paint-order:markers fill stroke"
       id="rect356-6"
       width="17"
       height="18"
       x="-249.20792"
       y="109.10569"
       transform="matrix(-0.95761858,-0.28803932,-0.28803932,0.95761858,0,0)"
       ry="1.7238938"
       rx="1.835286" /></g></svg>
